<?xml version="1.0" encoding="utf-8"?>
<!-- Generator: Adobe Illustrator 16.0.0, SVG Export Plug-In . SVG Version: 6.00 Build 0)  -->
<!DOCTYPE svg PUBLIC "-//W3C//DTD SVG 1.1//EN" "http://www.w3.org/Graphics/SVG/1.1/DTD/svg11.dtd">
<svg version="1.1" id="Capa_1" xmlns="http://www.w3.org/2000/svg" xmlns:xlink="http://www.w3.org/1999/xlink" x="0px" y="0px"
	 width="512px" height="512px" viewBox="0 0 512 512" enable-background="new 0 0 512 512" xml:space="preserve">
<g>
	<path fill="#C7D0D8" d="M511.153,159.931C503.68,77.671,445.456,17.99,372.59,17.99c-48.544,0-92.992,26.124-118.003,67.992
		C229.803,43.572,187.176,17.98,139.41,17.98C66.554,17.98,8.32,77.661,0.856,159.92c-0.591,3.634-3.013,22.756,4.353,53.94
		c10.615,44.98,35.133,85.893,70.887,118.29l178.373,161.869l181.437-161.859c35.754-32.405,60.271-73.31,70.887-118.298
		C514.156,182.686,511.734,163.564,511.153,159.931z M487.619,209.351c-9.688,41.081-32.149,78.508-64.891,108.167L254.587,467.532
		L89.33,317.557c-32.8-29.717-55.25-67.135-64.949-108.215c-6.971-29.511-4.106-46.181-4.096-46.29l0.148-0.995
		c6.4-72.068,56.431-124.384,118.978-124.384c46.152,0,86.779,28.359,106.059,73.999l9.069,21.495l9.068-21.495
		c18.976-44.94,61.75-73.988,108.994-73.988c62.536,0,112.577,52.315,119.105,125.319
		C491.726,163.16,494.591,179.84,487.619,209.351z"/>
</g>
</svg>
