<?xml version="1.0" encoding="utf-8"?>
<!-- Generator: Adobe Illustrator 16.0.0, SVG Export Plug-In . SVG Version: 6.00 Build 0)  -->
<!DOCTYPE svg PUBLIC "-//W3C//DTD SVG 1.1//EN" "http://www.w3.org/Graphics/SVG/1.1/DTD/svg11.dtd">
<svg version="1.1" id="Capa_1" xmlns="http://www.w3.org/2000/svg" xmlns:xlink="http://www.w3.org/1999/xlink" x="0px" y="0px"
	 width="512px" height="512px" viewBox="0 0 512 512" enable-background="new 0 0 512 512" xml:space="preserve">
<path fill="#C7D1D8" d="M428.979,512H317.021c-4.283,0-7.758-3.476-7.758-7.758V346.298H202.721v157.944
	c0,4.282-3.476,7.758-7.758,7.758H82.975c-4.282,0-7.758-3.476-7.758-7.758v-257.66H11.326c-3.181,0-6.036-1.939-7.215-4.888
	c-1.164-2.948-0.419-6.314,1.877-8.502L250.632,2.125c2.994-2.839,7.665-2.824,10.675,0l244.704,231.067
	c2.297,2.188,3.041,5.554,1.878,8.502c-1.18,2.948-4.033,4.888-7.215,4.888h-63.938v257.66C436.736,508.524,433.261,512,428.979,512
	z M324.779,496.484h96.44v-257.66c0-4.282,3.477-7.757,7.758-7.757h52.179L255.969,18.432L30.844,231.067h52.131
	c4.282,0,7.757,3.475,7.757,7.757v257.66h96.474V338.541c0-4.282,3.475-7.758,7.757-7.758h122.059c4.28,0,7.758,3.476,7.758,7.758
	V496.484z"/>
</svg>
