<?xml version="1.0" encoding="utf-8"?>
<!-- Generator: Adobe Illustrator 16.0.0, SVG Export Plug-In . SVG Version: 6.00 Build 0)  -->
<!DOCTYPE svg PUBLIC "-//W3C//DTD SVG 1.1//EN" "http://www.w3.org/Graphics/SVG/1.1/DTD/svg11.dtd">
<svg version="1.1" id="Capa_1" xmlns="http://www.w3.org/2000/svg" xmlns:xlink="http://www.w3.org/1999/xlink" x="0px" y="0px"
	 width="512px" height="512px" viewBox="0 0 512 512" enable-background="new 0 0 512 512" xml:space="preserve">
<g>
	<path fill="#C7D0D8" d="M470.726,437.987H41.274C18.524,437.987,0,419.479,0,396.713V115.271c0-22.767,18.524-41.274,41.274-41.274
		h429.451c22.751,0,41.274,18.507,41.274,41.274v281.442C512,419.479,493.477,437.987,470.726,437.987z M41.274,90.506
		c-13.654,0-24.765,11.111-24.765,24.765v281.442c0,13.653,11.111,24.765,24.765,24.765h429.451
		c13.653,0,24.766-11.11,24.766-24.765V115.271c0-13.654-11.111-24.765-24.766-24.765H41.274L41.274,90.506z"/>
	<path fill="#C7D0D8" d="M256,297.473c-10.979,0-21.958-3.647-30.312-10.93L14.71,102.674c-3.434-3.004-3.797-8.205-0.792-11.639
		c3.004-3.467,8.222-3.797,11.656-0.809l210.961,183.87c10.566,9.195,28.396,9.178,38.93,0L486.377,90.242
		c3.417-3.021,8.618-2.674,11.656,0.809c3.004,3.434,2.641,8.635-0.793,11.639L286.313,286.525
		C277.958,293.824,266.979,297.473,256,297.473z"/>
</g>
</svg>
