<?xml version="1.0" encoding="utf-8"?>
<!-- Generator: Adobe Illustrator 16.0.0, SVG Export Plug-In . SVG Version: 6.00 Build 0)  -->
<!DOCTYPE svg PUBLIC "-//W3C//DTD SVG 1.1//EN" "http://www.w3.org/Graphics/SVG/1.1/DTD/svg11.dtd">
<svg version="1.1" id="Layer_1" xmlns="http://www.w3.org/2000/svg" xmlns:xlink="http://www.w3.org/1999/xlink" x="0px" y="0px"
	 width="15px" height="15px" viewBox="0 0 15 15" enable-background="new 0 0 15 15" xml:space="preserve">
<title>public</title>
<desc>Created with Sketch.</desc>
<g id="App">
	<g id="Mobile-Portrait" transform="translate(-89.000000, -577.000000)">
		<g id="Group" transform="translate(0.000000, 565.000000)">
			<g id="public" transform="translate(89.000000, 12.000000)">
				<path id="Shape" fill="#C7D0D8" d="M7.5,0C3.375,0,0,3.375,0,7.5S3.375,15,7.5,15S15,11.625,15,7.5S11.625,0,7.5,0L7.5,0z
					 M6.75,13.425C3.825,13.05,1.5,10.5,1.5,7.5c0-0.45,0.075-0.9,0.15-1.35l3.6,3.6v0.75c0,0.825,0.675,1.5,1.5,1.5V13.425
					L6.75,13.425z M11.925,11.55c-0.225-0.6-0.75-1.05-1.425-1.05H9.75V8.25C9.75,7.8,9.45,7.5,9,7.5H4.5V6H6
					c0.45,0,0.75-0.3,0.75-0.75v-1.5h1.5c0.825,0,1.5-0.675,1.5-1.5v-0.3c2.175,0.9,3.75,3.075,3.75,5.55
					C13.5,9.075,12.9,10.5,11.925,11.55L11.925,11.55z"/>
			</g>
		</g>
	</g>
</g>
</svg>
