<svg xmlns="http://www.w3.org/2000/svg" width="21" height="22" viewBox="0 0 21 22">
    <path fill="none" fill-rule="evenodd" stroke="#4A4A4A" stroke-width=".5" d="M10.515 1C5.282 1 1 5.5 1 11s4.282 10 9.515 10c5.233 0 9.515-4.5 9.515-10S15.748 1 10.515 1zm.952 17H9.564v-2h1.903v2zm1.998-7.7l-.857.9c-.76.7-1.141 1.3-1.141 2.8H9.564v-.5c0-1.1.38-2.1 1.141-2.8l1.142-1.3c.38-.3.571-.8.571-1.4 0-1.1-.856-2-1.903-2-1.047 0-1.903.9-1.903 2H6.709c0-2.2 1.713-4 3.806-4s3.806 1.8 3.806 4c0 .9-.38 1.7-.856 2.3z"/>
</svg>
