<?xml version="1.0" encoding="utf-8"?>
<!-- Generator: Adobe Illustrator 16.0.0, SVG Export Plug-In . SVG Version: 6.00 Build 0)  -->
<!DOCTYPE svg PUBLIC "-//W3C//DTD SVG 1.1//EN" "http://www.w3.org/Graphics/SVG/1.1/DTD/svg11.dtd">
<svg version="1.1" id="Layer_1" xmlns="http://www.w3.org/2000/svg" xmlns:xlink="http://www.w3.org/1999/xlink" x="0px" y="0px"
	 width="512px" height="512px" viewBox="0 0 512 512" enable-background="new 0 0 512 512" xml:space="preserve">
<path fill="#167F52" d="M256,0C114.036,0,0,114.036,0,256s114.036,256,256,256s256-114.036,256-256S397.964,0,256,0z
	 M403.782,175.709L403.782,175.709L217.6,368.873c-2.327,2.327-4.655,3.49-8.146,3.49s-6.982-1.163-8.146-3.49l-90.764-97.746
	l-2.327-2.327c-2.327-2.327-3.491-5.817-3.491-8.146c0-2.327,1.164-5.818,3.491-8.145l16.291-16.291
	c4.654-4.655,11.636-4.655,16.291,0l1.164,1.164l64,68.654c2.327,2.327,5.818,2.327,8.145,0l155.927-161.745h1.164
	c4.654-4.655,11.636-4.655,16.291,0l16.291,16.291C408.437,164.073,408.437,171.055,403.782,175.709z"/>
</svg>
